<svg width="1192" height="432" xmlns="http://www.w3.org/2000/svg" xmlns:xlink="http://www.w3.org/1999/xlink" overflow="hidden"><defs><clipPath id="clip0"><rect x="0" y="0" width="1192" height="432"/></clipPath></defs><g clip-path="url(#clip0)"><path d="M1148.92 248.004C1147.91 249.03 1146.83 249.871 1145.7 250.527 1142.91 252.159 1139.4 253.033 1135.51 253.05 1133.33 253.067 1132.22 252.932 1131.14 252.798 1130.18 252.68 1129.26 252.579 1127.39 252.579 1125.47 252.596 1014.96 252.68 1013.98 252.764 1012.94 252.865 1011.85 252.966 1009.71 252.966 1007.73 252.983 1006.72 252.999 1005.72 253.033 1004.7 253.05 903.25 253.084 901.181 253.084 899.197 253.1 898.205 253.134 897.195 253.168 896.169 253.201 895.127 253.235 893.075 253.252L884.969 253.285C882.816 253.302 881.723 253.184 880.663 253.084 879.688 252.983 773.614 252.899 771.713 252.899 769.745 252.915 768.77 252.966 767.795 253.016 766.752 253.067 765.709 253.134 763.624 253.134 761.706 253.151 698.604 253.235 697.611 253.336 696.552 253.437 695.475 253.538 693.339 253.555 691.237 253.571 690.161 253.504 689.118 253.437 688.126 253.37 687.167 253.319 685.233 253.336 683.198 253.353 682.172 253.336 681.146 253.336 680.137 253.319 679.145 253.319 677.126 253.336L669.02 253.386C666.884 253.403 665.791 253.302 664.731 253.201 663.756 253.117 662.831 253.016 660.93 253.033 659.08 253.05 658.189 253.168 657.23 253.319 656.204 253.47 544.782 253.639 542.579 253.655 540.51 253.672 539.468 253.622 538.425 253.588 537.449 253.555 536.457 253.521 534.489 253.521 532.505 253.538 531.513 253.555 530.52 253.588 529.494 253.622 401.54 253.655 399.488 253.655 397.386 253.672 396.309 253.605 395.267 253.538 394.274 253.47 393.332 253.42 391.398 253.42 389.447 253.437 279.051 253.487 278.076 253.555 277.05 253.622 275.99 253.672 273.888 253.689 271.887 253.706 270.877 253.723 269.868 253.74 268.842 253.756 267.817 253.773 265.781 253.79 263.763 253.807 262.754 253.807 261.745 253.824 260.736 253.84 163.593 253.84 161.575 253.857 159.506 253.874 158.463 253.84 157.42 253.807 156.428 253.773 155.453 253.74 153.468 253.756 151.332 253.773 73.6647 253.672 72.6219 253.588 71.6297 253.504 70.7046 253.437 68.7873 253.437 66.8028 253.454 65.8273 253.487 64.835 253.538 63.7923 253.588 62.7663 253.622 60.6977 253.639 57.3844 253.655 54.1721 252.747 50.8757 250.864 48.5884 249.552 45.3088 247.416 43.2738 243.951 41.3901 240.739 40.381 237.274 40.3642 233.944 40.3474 231.724 40.5156 230.547 40.6669 229.504 40.8015 228.562 40.936 227.654 40.9192 225.821 40.9024 223.904 40.8183 222.979 40.7174 221.986 40.6165 220.927 40.5156 219.85 40.4988 217.698 40.4819 215.696 40.4483 214.704 40.4147 213.712 40.381 212.686 40.3474 211.66 40.3306 209.591 40.3138 207.59 40.2969 206.581 40.2801 205.572 40.2633 204.546 40.2297 203.52 40.2297 201.485 40.2128 199.399 40.2633 198.356 40.3138 197.297 40.3642 196.321 40.3978 195.329 40.3978 193.378 40.381 191.326 40.4147 190.284 40.4483 189.258 40.4819 188.265 40.4988 187.273 40.4819 185.289 40.4651 183.237 40.4988 182.194 40.5156 181.168 40.5324 180.176 40.5492 179.167 40.5492 177.182 40.5324 175.248 40.4651 174.306 40.3978 173.297 40.3138 172.254 40.2465 171.178 40.2297 169.076 40.2128 167.024 40.2465 165.998 40.2633 164.972 40.2801 163.98 40.2969 162.971 40.2969 160.986 40.2801 158.951 40.2969 157.925 40.2969 156.916 40.2969 155.907 40.3138 154.898 40.2969 152.896 40.2801 151.013 40.1792 150.104 40.0615 149.129 39.9437 148.069 39.8092 146.959 39.7924 144.79 39.7756 142.721 39.7924 141.695 39.8092 140.669 39.826 139.677 39.8428 138.685 39.826 136.7 39.8092 134.631 39.8428 133.589 39.8765 132.546 39.9101 131.554 39.9437 130.561 39.9269 128.594 39.9101 126.475 39.9774 125.415 40.0447 124.372 40.1119 123.38 40.1624 122.438 40.1624 120.504 40.1456 118.553 40.0951 117.561 40.0447 116.585 39.9942 115.543 39.9269 114.5 39.9101 112.398 39.8933 110.413 39.8597 109.421 39.826 108.428 39.7924 107.402 39.7587 106.377 39.7419 104.308 39.7251 102.306 39.7083 101.297 39.6915 100.305 39.6747 99.2791 39.641 98.2532 39.641 96.2182 39.6242 94.1663 39.641 93.1404 39.641 92.1145 39.6578 91.1222 39.6578 90.1131 39.641 88.1117 39.6242 86.0599 39.641 85.0339 39.641 84.008 39.641 83.0157 39.641 82.0066 39.641 80.0052 39.6242 77.8861 39.7083 76.8097 39.7756 75.767 39.8428 74.7747 39.9101 73.8329 39.8933 71.8988 39.8765 70.0151 39.7756 69.1069 39.641 68.1482 39.5065 67.0719 39.3719 65.9787 39.3551 63.7923 39.3383 61.8077 39.3046 60.8154 39.271 59.8231 39.2374 58.7972 39.2037 57.7713 39.1869 55.7026 39.1701 52.5744 40.1624 49.3116 42.2311 45.6956 44.0474 42.517 46.5366 39.9437 49.4293 38.2451 52.7594 36.2942 56.5435 36.0251 59.4699 36.0082 61.4545 35.9914 62.4468 35.9578 63.4391 35.9073 64.4818 35.8569 65.5246 35.8064 67.5932 35.8064 69.5105 35.7896 70.4355 35.7055 71.411 35.6046 72.4706 35.5037 150.138 35.386 152.291 35.3691 154.292 35.3523 155.301 35.3523 156.31 35.3523 157.336 35.3523 158.345 35.3523 160.397 35.3355 162.584 35.3187 259.811 35.4701 260.887 35.6046 261.846 35.7223 262.754 35.8401 264.604 35.8401 266.555 35.8232 267.497 35.7728 268.506 35.7055 269.532 35.6382 270.608 35.571 272.711 35.5541 274.763 35.5373 275.788 35.5541 276.814 35.5878 277.807 35.6046 388.22 35.6214 390.221 35.6046 392.29 35.5878 393.332 35.6214 394.358 35.6551 395.351 35.6887 396.343 35.7055 398.327 35.7055 400.194 35.6887 528.031 35.5878 528.99 35.4532 530.066 35.3187 531.159 35.1841 533.346 35.1673 535.297 35.1505 536.239 35.1 537.248 35.0328 538.274 34.9655 539.35 34.8982 541.452 34.8814 543.706 34.8646 544.9 35.0832 545.96 35.2682 546.935 35.4364 658.004 35.5878 659.803 35.571 661.754 35.5541 662.696 35.5037 663.705 35.4364 664.731 35.3691 665.808 35.3019 667.91 35.3019 669.878 35.285 670.853 35.2346 671.829 35.1841 672.871 35.1337 673.914 35.0832 676 35.0664 677.934 35.0496 678.892 34.9823 679.885 34.915 680.927 34.8478 681.987 34.7637 684.106 34.7469 686.225 34.73 687.302 34.8141 688.344 34.8982 689.337 34.9655 690.262 35.0496 692.196 35.0328L700.302 34.9991C702.27 34.9823 765.457 34.9487 766.432 34.915 767.475 34.8814 768.501 34.8478 770.57 34.8309 772.537 34.8141 878.678 34.7805 879.671 34.73 880.713 34.6796 881.739 34.6291 883.825 34.6291 886.028 34.6123 887.205 34.7805 888.248 34.9319 889.19 35.0664 890.098 35.201 891.931 35.1841 893.764 35.1673 894.622 35.0328 895.598 34.8814 896.641 34.7132 897.801 34.5282 900.021 34.5114 902.224 34.4946 1003.81 34.6628 1004.83 34.7973 1005.79 34.9319 1006.68 35.0496 1008.53 35.0496 1010.52 35.0328 1011.53 35.016 1012.52 34.9823 1013.55 34.9487 1124.14 34.9319 1126.21 34.915 1128.26 34.8982 1129.27 34.915 1130.3 34.9319 1131.31 34.9487 1132.3 34.9487 1134.3 34.9487 1137.9 34.9319 1141.23 35.7728 1144.19 37.4714 1147.39 39.2878 1149.88 41.6929 1151.57 44.6025 1153.34 47.6298 1154.25 50.9766 1154.28 54.5421 1154.3 56.409 1154.42 57.3172 1154.53 58.2758 1154.69 59.3522 1154.82 60.4622 1154.84 62.6486 1154.85 64.8014 1154.74 65.9114 1154.64 66.971 1154.53 67.9464 1154.45 68.8714 1154.45 70.7719 1154.47 72.8406 1154.43 73.8833 1154.4 74.9092 1154.37 75.9015 1154.35 76.8938 1154.35 78.8784 1154.37 80.7621 1154.47 81.6703 1154.58 82.6289 1154.72 83.6885 1154.85 84.7985 1154.87 86.9681 1154.89 89.1713 1154.74 90.2813 1154.6 91.3577 1154.48 92.3163 1154.37 93.2077 1154.37 95.0745 1154.38 97.0087 1154.45 97.9505 1154.52 98.9428 1154.6 99.9855 1154.67 101.062 1154.69 103.164 1154.7 105.182 1154.7 106.192 1154.72 107.201 1154.74 108.227 1154.75 109.236 1154.75 111.271 1154.77 113.272 1154.79 114.264 1154.8 115.273 1154.82 116.299 1154.85 117.325 1154.85 119.377 1154.87 121.345 1154.9 122.337 1154.95 123.313 1155.01 124.355 1155.04 125.381 1155.06 127.467 1155.07 129.636 1154.95 130.73 1154.84 131.789 1154.74 132.765 1154.64 133.673 1154.65 135.556 1154.67 137.625 1154.64 138.668 1154.6 139.694 1154.57 140.686 1154.55 141.678 1154.55 143.663 1154.57 145.597 1154.64 146.539 1154.7 147.531 1154.79 148.574 1154.85 149.65 1154.87 151.753 1154.89 153.687 1154.95 154.629 1155.04 155.621 1155.12 156.664 1155.21 157.74 1155.22 159.859 1155.24 162.029 1155.12 163.122 1155.01 164.198 1154.9 165.157 1154.8 166.082 1154.8 167.966 1154.82 170.017 1154.8 171.043 1154.79 172.069 1154.77 173.062 1154.75 174.071 1154.77 176.072 1154.79 177.973 1154.87 178.898 1154.97 179.873 1155.07 180.933 1155.19 182.009 1155.19 184.145 1155.21 186.079 1155.27 187.038 1155.34 188.03 1155.41 189.073 1155.49 190.132 1155.49 192.251 1155.51 194.354 1155.44 195.413 1155.39 196.439 1155.34 197.448 1155.29 198.39 1155.31 200.341 1155.32 202.477 1155.22 203.57 1155.14 204.613 1155.06 205.588 1154.97 206.53 1154.99 208.431 1155.01 210.298 1155.12 211.206 1155.24 212.164 1155.38 213.241 1155.53 214.351 1155.54 216.52 1155.56 218.724 1155.39 219.901 1155.24 220.944 1155.11 221.885 1154.97 222.794 1154.99 224.627 1155.01 226.611 1155.04 227.604 1155.07 228.579 1155.12 229.605 1155.16 230.648 1155.17 232.716 1155.19 236.417 1154.35 239.78 1152.67 242.707 1151.56 244.893 1150.28 246.609 1148.92 248.004ZM49.2275 44.8043C48.2521 45.7797 47.3943 46.9402 46.6543 48.2184 45.0397 51.0439 44.2661 53.4826 44.2661 55.7026 44.2829 57.6872 44.3165 58.6795 44.3502 59.6718 44.3838 60.6977 44.4174 61.7236 44.4343 63.7923 44.4511 65.6591 44.552 66.5673 44.6865 67.5428 44.8211 68.6192 44.9556 69.7124 44.9725 71.8988 44.9893 74.0179 44.9052 75.0943 44.8379 76.137 44.7706 77.1293 44.7034 78.0711 44.7202 80.0052 44.737 82.0234 44.7202 83.0325 44.7202 84.0416 44.7202 85.0508 44.7202 86.0599 44.7202 88.0949 44.737 90.1299 44.7202 91.1558 44.7202 92.1649 44.7034 93.1741 44.7034 94.1832 44.7202 96.2014 44.737 98.2028 44.7538 99.2119 44.7706 100.204 44.7875 101.23 44.8211 102.239 44.8211 104.291 44.8379 106.276 44.8715 107.268 44.9052 108.26 44.9388 109.286 44.9725 110.312 44.9893 112.381 45.0061 114.348 45.0566 115.324 45.107 116.316 45.1575 117.359 45.2247 118.402 45.2416 120.487 45.2584 122.589 45.1911 123.666 45.1238 124.692 45.0566 125.684 45.0061 126.626 45.0061 128.577 45.0229 130.645 44.9893 131.671 44.9556 132.714 44.922 133.706 44.8884 134.699 44.9052 136.683 44.922 138.718 44.9052 139.744 44.8884 140.77 44.8715 141.779 44.8547 142.772 44.8715 144.79 44.8884 146.673 44.9893 147.598 45.107 148.574 45.2247 149.633 45.3593 150.727 45.3761 152.896 45.3929 154.931 45.3761 155.957 45.3761 156.966 45.3761 157.975 45.3593 158.985 45.3761 160.986 45.3929 163.055 45.3593 164.081 45.3425 165.106 45.3256 166.099 45.3088 167.091 45.3088 169.092 45.3256 171.027 45.3929 171.968 45.4602 172.977 45.5443 174.02 45.6116 175.097 45.6284 177.199 45.6452 179.251 45.6116 180.293 45.5947 181.319 45.5779 182.312 45.5611 183.321 45.5611 185.305 45.5779 187.374 45.5443 188.4 45.5275 189.443 45.4938 190.435 45.477 191.427 45.4938 193.412 45.5106 195.497 45.4602 196.54 45.4097 197.6 45.3593 198.575 45.3256 199.567 45.3256 201.518 45.3425 203.52 45.3593 204.529 45.3761 205.538 45.3929 206.564 45.4266 207.59 45.4266 209.625 45.4434 211.609 45.477 212.602 45.5106 213.594 45.5443 214.62 45.5779 215.663 45.5947 217.731 45.6116 219.649 45.6956 220.574 45.7966 221.566 45.8975 222.625 45.9984 223.702 46.0152 225.855 46.032 228.075 45.8638 229.252 45.7125 230.295 45.5779 231.236 45.4434 232.145 45.4602 233.978 45.477 236.433 46.2338 239.023 47.6802 241.496 48.7734 243.363 50.5562 244.943 53.4321 246.592 55.9717 248.055 58.2926 248.728 60.7481 248.711 62.7327 248.694 63.7082 248.66 64.7005 248.61 65.7432 248.559 66.7691 248.526 68.8378 248.509 70.9737 248.492 72.0501 248.593 73.1097 248.677 74.102 248.761 151.618 248.829 153.535 248.829 155.604 248.812 156.63 248.845 157.656 248.879 158.648 248.913 159.64 248.946 161.625 248.929 163.643 248.913 260.77 248.913 261.779 248.896 262.788 248.879 263.814 248.879 265.849 248.862 267.85 248.845 268.859 248.829 269.868 248.812 270.894 248.795 271.903 248.778 273.955 248.761 275.906 248.744 276.898 248.694 277.874 248.627 278.9 248.559 389.38 248.509 391.466 248.492 393.568 248.475 394.644 248.543 395.687 248.61 396.679 248.677 397.621 248.728 399.572 248.728 401.573 248.711 529.494 248.694 530.487 248.66 531.513 248.627 532.539 248.593 534.574 248.593 536.642 248.576 537.685 248.627 538.711 248.66 539.703 248.694 540.679 248.728 542.663 248.728 544.513 248.711 545.405 248.593 546.363 248.442 547.389 248.29 658.811 248.122 661.014 248.105 663.167 248.089 664.26 248.189 665.303 248.29 666.279 248.374 667.204 248.475 669.104 248.459L677.211 248.408C679.246 248.391 680.271 248.408 681.297 248.408 682.307 248.408 683.299 248.425 685.317 248.408 687.419 248.391 688.496 248.459 689.538 248.526 690.531 248.593 691.489 248.644 693.423 248.627 695.341 248.61 696.266 248.526 697.241 248.425 698.301 248.324 761.555 248.223 763.708 248.206 765.675 248.189 766.651 248.139 767.643 248.089 768.686 248.038 769.729 247.971 771.814 247.971 773.967 247.954 880.226 248.072 881.285 248.173 882.261 248.274 883.186 248.358 885.069 248.358L893.176 248.324C895.16 248.307 896.153 248.274 897.162 248.24 898.188 248.206 899.23 248.173 901.282 248.156 903.301 248.139 1004.72 248.122 1005.72 248.105 1006.73 248.089 1007.76 248.055 1009.79 248.055 1011.71 248.038 1012.65 247.954 1013.65 247.87 1014.69 247.769 1125.35 247.668 1127.49 247.668 1129.68 247.651 1130.79 247.786 1131.86 247.92 1132.84 248.038 1133.75 248.139 1135.63 248.139 1138.59 248.122 1141.31 247.466 1143.32 246.289 1145.2 245.179 1146.92 243.262 1148.55 240.403 1149.79 238.233 1150.4 235.727 1150.4 232.918 1150.38 230.934 1150.35 229.941 1150.31 228.966 1150.26 227.94 1150.23 226.897 1150.21 224.829 1150.2 222.625 1150.36 221.448 1150.51 220.405 1150.65 219.464 1150.78 218.555 1150.77 216.722 1150.75 214.855 1150.63 213.947 1150.51 212.988 1150.38 211.912 1150.23 210.802 1150.21 208.616 1150.2 206.48 1150.3 205.387 1150.38 204.327 1150.46 203.352 1150.55 202.41 1150.53 200.509 1150.51 198.424 1150.58 197.347 1150.63 196.321 1150.68 195.312 1150.73 194.37 1150.72 192.403 1150.7 190.452 1150.65 189.51 1150.56 188.518 1150.5 187.492 1150.41 186.415 1150.41 184.313 1150.4 182.413 1150.31 181.488 1150.21 180.512 1150.11 179.453 1149.99 178.376 1149.99 176.223 1149.98 174.172 1149.99 173.146 1150.01 172.12 1150.03 171.127 1150.04 170.118 1150.03 168.117 1150.01 165.947 1150.13 164.854 1150.25 163.778 1150.35 162.819 1150.45 161.894 1150.45 160.01 1150.43 158.076 1150.36 157.135 1150.28 156.142 1150.2 155.099 1150.11 154.023 1150.09 151.904 1150.08 149.97 1150.01 149.028 1149.94 148.019 1149.86 146.976 1149.79 145.917 1149.77 143.814 1149.76 141.746 1149.79 140.72 1149.82 139.694 1149.86 138.702 1149.88 137.709 1149.88 135.725 1149.86 133.555 1149.98 132.462 1150.09 131.402 1150.2 130.427 1150.3 129.519 1150.28 127.635 1150.26 125.65 1150.23 124.658 1150.18 123.666 1150.13 122.64 1150.09 121.597 1150.08 119.529 1150.06 117.51 1150.04 116.518 1150.03 115.509 1150.01 114.483 1149.98 113.457 1149.98 111.422 1149.96 109.404 1149.96 108.395 1149.94 107.386 1149.93 106.36 1149.91 105.351 1149.91 103.316 1149.89 101.381 1149.82 100.44 1149.76 99.4473 1149.67 98.4046 1149.61 97.345 1149.59 95.2259 1149.57 93.0227 1149.72 91.9127 1149.86 90.8363 1149.98 89.8776 1150.09 88.9863 1150.09 87.1194 1150.08 85.2358 1149.98 84.3276 1149.86 83.3521 1149.72 82.2925 1149.59 81.1825 1149.57 79.0129 1149.56 76.9443 1149.59 75.9015 1149.62 74.8756 1149.66 73.8833 1149.67 72.891 1149.67 70.9065 1149.66 68.7369 1149.77 67.6437 1149.88 66.5841 1149.98 65.6087 1150.06 64.6836 1150.06 62.7832 1150.04 60.9163 1149.93 60.0081 1149.81 59.0327 1149.66 57.9563 1149.52 56.8463 1149.51 54.6599 1149.49 51.9857 1148.82 49.4966 1147.49 47.2261 1146.24 45.0902 1144.38 43.3074 1141.94 41.9115 1139.72 40.6333 1137.3 40.0278 1134.55 40.0447 1132.5 40.0615 1131.49 40.0447 1130.47 40.0278 1129.46 40.011 1128.47 40.011 1126.46 40.011 1124.46 40.0278 1013.88 40.0447 1012.89 40.0783 1011.86 40.1119 1010.84 40.1288 1008.8 40.1456 1006.6 40.1624 1005.42 39.9942 1004.4 39.8597 1003.44 39.7251 902.14 39.6074 900.29 39.6074 898.457 39.6242 897.616 39.7587 896.624 39.9101 895.581 40.0783 894.404 40.2633 892.2 40.2801 889.997 40.2969 888.82 40.1288 887.777 39.9774 886.835 39.8428 885.927 39.7083 884.094 39.7251 882.126 39.7419 881.134 39.7756 880.142 39.826 879.099 39.8765 772.907 39.9269 770.839 39.9269 768.837 39.9437 767.845 39.9774 766.853 40.011 765.827 40.0447 702.623 40.0783 700.571 40.0951L692.465 40.1288C690.346 40.1456 689.269 40.0615 688.227 39.9774 687.234 39.9101 686.309 39.826 684.375 39.8428 682.441 39.8597 681.482 39.9269 680.49 39.9942 679.447 40.0615 678.388 40.1456 676.269 40.1624 674.301 40.1792 673.326 40.2297 672.333 40.2801 671.29 40.3306 670.248 40.381 668.179 40.3978 666.228 40.4147 665.269 40.4651 664.277 40.5324 663.251 40.5997 662.175 40.6669 660.089 40.6669 657.836 40.6838 546.397 40.4651 545.354 40.2801 544.379 40.1119 543.555 39.9606 541.755 39.9774 539.804 39.9942 538.862 40.0447 537.853 40.1119 536.827 40.1792 535.751 40.2465 533.648 40.2633 531.765 40.2801 530.857 40.381 529.898 40.5156 528.822 40.6501 400.817 40.7847 398.63 40.8015 396.562 40.8183 395.519 40.7847 394.493 40.751 393.501 40.7174 392.508 40.7006 390.524 40.7006 388.472 40.7174 278.025 40.7006 276.999 40.6669 276.007 40.6501 274.998 40.6333 273.013 40.6501 271.062 40.6669 270.104 40.7174 269.112 40.7847 268.086 40.8519 267.009 40.9192 264.924 40.936 262.737 40.9529 165.51 40.8015 164.434 40.6669 163.475 40.5492 162.567 40.4315 160.717 40.4315 158.648 40.4483 157.639 40.4483 156.596 40.4483 155.604 40.4483 154.595 40.4483 152.61 40.4651 150.693 40.4819 73.1938 40.566 72.2015 40.6669 71.1419 40.7679 70.0487 40.8856 67.896 40.9024 65.9282 40.9192 64.9359 40.9529 63.9436 41.0033 62.9009 41.0538 61.8582 41.1042 59.7727 41.1042 56.3585 41.121 54.0376 41.6088 52.238 42.6515 51.0439 43.1729 50.1021 43.9297 49.2275 44.8043Z" fill="#45463D" fill-rule="nonzero" fill-opacity="1" transform="matrix(1 0 0 1.50722 1.51089 0)"/><path d="M1144.51 241.916C1142.22 244.237 1138.93 245.583 1135.46 245.599 1133.39 245.616 1132.38 245.616 1131.34 245.633 1130.35 245.65 1129.34 245.65 1127.37 245.667 1125.37 245.684 1014.81 245.717 1013.8 245.768 1012.77 245.818 1011.75 245.852 1009.69 245.868 1007.64 245.885 1006.63 245.868 1005.61 245.835 1004.6 245.818 903.183 245.801 901.181 245.801 899.029 245.818 897.936 245.65 896.876 245.498 895.9 245.347 894.975 245.213 893.075 245.229 891.174 245.246 890.25 245.381 889.274 245.549 888.214 245.717 887.121 245.902 884.969 245.902 882.933 245.919 881.924 245.936 880.915 245.953 879.906 245.969 773.731 245.986 771.73 246.003 769.645 246.02 768.585 245.936 767.559 245.868 766.55 245.801 765.608 245.734 763.64 245.734 761.605 245.751 698.402 245.734 697.376 245.717 696.367 245.7 695.374 245.684 693.356 245.7 691.372 245.717 690.346 245.7 689.353 245.7 688.328 245.7 687.318 245.7 685.267 245.7 683.265 245.717 682.273 245.751 681.264 245.784 680.238 245.818 679.212 245.868 677.16 245.868 675.058 245.885 673.998 245.801 672.972 245.7 671.963 245.616 671.021 245.532 669.07 245.549 667.136 245.566 666.194 245.667 665.202 245.768 664.159 245.885 663.1 246.003 660.981 246.003L542.646 246.053C540.628 246.07 539.619 246.087 538.61 246.087 537.601 246.104 536.575 246.121 534.54 246.121 532.438 246.138 531.378 246.053 530.352 245.969 529.343 245.885 401.489 245.818 399.522 245.818 397.503 245.835 396.494 245.835 395.468 245.852 394.459 245.868 393.433 245.868 391.415 245.885 389.38 245.902 278.967 245.902 277.941 245.902 276.932 245.902 275.923 245.902 273.905 245.919 271.836 245.936 270.793 245.885 269.767 245.835 268.775 245.784 267.783 245.751 265.798 245.751 263.831 245.768 262.889 245.835 261.88 245.919 260.854 246.003 163.677 246.087 161.591 246.104 159.64 246.121 158.682 246.205 157.69 246.306 156.664 246.407 155.587 246.508 153.485 246.508 151.433 246.524 73.816 246.508 72.7901 246.491 71.781 246.474 70.7887 246.457 68.7705 246.474 66.685 246.491 65.6087 246.424 64.5827 246.356 63.5736 246.289 62.615 246.222 60.6472 246.239 57.5695 246.255 54.6935 244.96 52.1035 242.387 50.2366 240.537 47.7475 237.644 47.7307 233.877 47.7139 231.724 47.8989 230.614 48.067 229.555 48.2184 228.579 48.3698 227.671 48.353 225.77 48.3361 223.769 48.3025 222.777 48.2521 221.768 48.2016 220.742 48.168 219.716 48.1511 217.664 48.1343 215.747 48.0166 214.822 47.882 213.829 47.7475 212.787 47.5961 211.693 47.5793 209.574 47.5625 207.422 47.7307 206.328 47.8989 205.269 48.0502 204.293 48.1848 203.368 48.1848 201.485 48.168 199.45 48.168 198.441 48.168 197.431 48.168 196.422 48.168 195.413 48.1511 193.395L48.1007 185.289C48.0839 183.321 48.0334 182.329 47.9661 181.336 47.8989 180.327 47.8484 179.268 47.8316 177.199 47.8148 175.13 47.8652 174.104 47.8989 173.062 47.9325 172.069 47.9661 171.077 47.9661 169.092 47.9493 167.091 47.9325 166.082 47.9157 165.09 47.8989 164.064 47.882 163.055 47.8652 161.003 47.8484 158.951 47.8652 157.942 47.8989 156.916 47.9157 155.907 47.9325 154.914 47.9325 152.913 47.9157 150.945 47.8484 150.003 47.7643 148.994 47.6802 147.968 47.5961 146.909 47.5961 144.823 47.5793 142.805 47.5625 141.813 47.5289 140.804 47.4952 139.778 47.4616 138.752 47.4616 136.717 47.4448 134.665 47.4784 133.639 47.512 132.613 47.5457 131.621 47.5793 130.612 47.5625 128.627 47.5457 126.525 47.6466 125.465 47.7307 124.423 47.8148 123.414 47.8989 122.472 47.882 120.521 47.8652 118.553 47.798 117.611 47.7139 116.602 47.6298 115.576 47.5457 114.517 47.5457 112.431 47.5289 110.362 47.5793 109.303 47.6298 108.294 47.6802 107.268 47.7307 106.309 47.7139 104.325 47.697 102.391 47.5961 101.449 47.4952 100.44 47.3943 99.3969 47.2766 98.3373 47.2598 96.2182 47.2429 94.2336 47.2093 93.2413 47.1589 92.249 47.142 91.2231 47.0916 90.1972 47.0916 88.1285 47.0748 86.0599 47.1252 85.0339 47.1589 84.008 47.1925 83.0157 47.2429 82.0234 47.2261 80.022 47.2093 77.9534 47.2598 76.9106 47.3102 75.8847 47.3607 74.8924 47.3943 73.9001 47.3943 71.9156 47.3775 69.8974 47.3943 68.8714 47.3943 67.8623 47.4111 66.8364 47.4111 65.8273 47.3943 63.7923 47.3775 61.8582 47.2766 60.8995 47.1757 59.9072 47.0579 58.8645 46.9402 57.7881 46.9402 55.669 46.9234 52.3894 48.2857 49.1098 50.6571 46.7048 53.0621 44.2661 56.3249 42.8533 59.5877 42.8365 61.6731 42.8197 62.7159 42.887 63.7418 42.9543 64.7509 43.0215 65.7096 43.072 67.6773 43.0552 69.6451 43.0383 70.6037 42.9879 71.6297 42.9206 72.6556 42.8533 150.289 42.7861 152.358 42.7692 154.46 42.7524 155.537 42.8533 156.579 42.9543 157.572 43.0552 158.53 43.1392 160.465 43.1224 162.466 43.1056 259.576 43.072 260.585 43.0383 261.611 43.0047 262.636 42.9711 264.671 42.9543 266.656 42.9374 267.648 42.887 268.641 42.8365 269.683 42.7692 270.709 42.7188 272.778 42.702 274.897 42.6852 275.99 42.8197 277.033 42.9374 278.025 43.0552 388.371 43.1561 390.288 43.1561 392.273 43.1392 393.248 43.0888 394.241 43.0383 395.267 42.9711 396.309 42.9206 398.378 42.9038 400.363 42.887 528.233 42.8365 529.242 42.7692 530.268 42.702 531.311 42.6347 533.379 42.6347 535.515 42.6179 536.609 42.7692 537.651 42.9038 538.627 43.0383 539.569 43.1561 541.469 43.1392 543.37 43.1224 544.278 42.9879 545.253 42.8197 546.313 42.6515 657.651 42.4665 659.803 42.4665 661.805 42.4497 662.814 42.4329 663.823 42.3992 664.849 42.3656 665.858 42.332 667.91 42.332 670.08 42.3151 671.19 42.517 672.266 42.702 673.241 42.8702 674.15 43.0383 676.016 43.0215 678.001 43.0047 679.01 42.9711 680.002 42.9374 681.028 42.9038 682.054 42.8702 684.123 42.8533 686.04 42.8365 686.965 42.7188 687.957 42.5842 689 42.4497 690.093 42.2983 692.213 42.2815 694.365 42.2647 695.459 42.4329 696.535 42.6011 697.51 42.7524 698.435 42.887 700.336 42.887 702.27 42.8702 765.406 42.7692 766.399 42.6683 767.441 42.5506 768.501 42.4329 770.62 42.4329 772.588 42.4161 878.695 42.3488 879.704 42.2647 880.73 42.1806 881.79 42.0965 883.875 42.0965 885.961 42.0797 887.02 42.147 888.029 42.2142 889.039 42.2815 889.997 42.332 891.982 42.332 893.966 42.3151 894.959 42.2647 895.951 42.2142 896.994 42.147 898.02 42.0965 900.088 42.0797 902.241 42.0629 1003.76 42.2479 1004.82 42.3992 1005.79 42.5506 1006.72 42.702 1008.6 42.6852 1010.48 42.6683 1011.39 42.5001 1012.37 42.332 1013.44 42.1301 1124.13 41.9283 1126.3 41.9115 1128.31 41.8947 1129.32 41.8779 1130.33 41.861 1131.36 41.8442 1132.37 41.8106 1134.4 41.8106 1137.33 41.7938 1140.15 43.1729 1143.03 46.032 1145.33 48.3193 1146.51 51.2121 1146.55 54.6262 1146.56 56.6276 1146.58 57.6367 1146.6 58.6458 1146.61 59.6718 1146.65 60.6809 1146.65 62.7159 1146.66 64.7173 1146.68 65.7096 1146.71 66.7187 1146.75 67.7446 1146.78 68.7705 1146.78 70.8224 1146.8 72.8069 1146.85 73.7992 1146.9 74.7747 1146.97 75.8006 1147.02 76.8434 1147.03 78.912 1147.05 80.9302 1147.07 81.9225 1147.08 82.9316 1147.1 83.9576 1147.13 84.9667 1147.13 87.0017 1147.15 89.104 1147.05 90.1636 1146.97 91.1895 1146.88 92.1986 1146.8 93.1404 1146.81 95.0914 1146.83 97.0255 1146.93 97.9673 1147.05 98.9596 1147.17 100.002 1147.29 101.079 1147.3 103.181 1147.32 105.166 1147.35 106.158 1147.4 107.15 1147.45 108.176 1147.5 109.202 1147.5 111.271 1147.52 113.407 1147.39 114.483 1147.25 115.526 1147.13 116.518 1147.02 117.443 1147.03 119.36 1147.05 121.362 1147.07 122.371 1147.08 123.38 1147.1 124.406 1147.13 125.415 1147.15 127.45 1147.17 129.435 1147.22 130.427 1147.27 131.419 1147.32 132.445 1147.37 133.488 1147.39 135.54 1147.4 137.524 1147.45 138.517 1147.5 139.492 1147.57 140.518 1147.62 141.561 1147.64 143.629 1147.66 145.748 1147.54 146.825 1147.42 147.868 1147.32 148.86 1147.2 149.802 1147.22 151.736 1147.23 153.804 1147.18 154.83 1147.13 155.873 1147.08 156.865 1147.05 157.858 1147.05 159.842 1147.07 161.81 1147.13 162.752 1147.22 163.761 1147.3 164.787 1147.4 165.846 1147.4 167.949 1147.42 169.967 1147.45 170.959 1147.47 171.968 1147.5 172.994 1147.54 174.003 1147.54 176.055 1147.55 178.158 1147.47 179.217 1147.39 180.243 1147.3 181.252 1147.23 182.211 1147.25 184.162 1147.27 186.129 1147.34 187.088 1147.4 188.097 1147.47 189.123 1147.55 190.183 1147.57 192.251 1147.59 194.32 1147.54 195.38 1147.47 196.389 1147.42 197.415 1147.37 198.373 1147.39 200.358 1147.4 202.427 1147.35 203.452 1147.32 204.478 1147.29 205.471 1147.23 206.463 1147.25 208.464 1147.27 210.398 1147.37 211.34 1147.47 212.349 1147.59 213.392 1147.71 214.468 1147.71 216.571 1147.72 218.555 1147.79 219.514 1147.86 220.523 1147.92 221.549 1148.01 222.609 1148.01 224.694 1148.03 226.662 1148.03 227.688 1148.03 228.663 1148.03 229.706 1148.03 230.715 1148.04 232.817 1148.14 236.215 1146.8 239.612 1144.51 241.916ZM53.0453 49.0593C51.2794 50.8421 50.2703 53.2471 50.2871 55.6522 50.3039 57.6031 50.4048 58.5449 50.5057 59.5372 50.6234 60.58 50.7412 61.6563 50.7412 63.7586 50.758 65.8273 50.7412 66.8364 50.7412 67.8792 50.7244 68.8714 50.7244 69.8805 50.7244 71.8819 50.7412 73.9506 50.6907 74.9933 50.6403 76.0193 50.5898 77.0116 50.5562 78.0038 50.5562 79.9884 50.573 82.0571 50.5225 83.083 50.4889 84.1089 50.4553 85.1012 50.4048 86.0935 50.4216 88.0949 50.4384 90.0963 50.4721 91.0886 50.5225 92.0977 50.573 93.1236 50.6234 94.1495 50.6234 96.2014 50.6403 98.1355 50.7412 99.0773 50.8421 100.086 50.9598 101.129 51.0607 102.189 51.0775 104.308 51.0944 106.377 51.0439 107.436 50.9935 108.445 50.943 109.471 50.8925 110.43 50.9094 112.414 50.9262 114.382 50.9935 115.341 51.0775 116.35 51.1616 117.376 51.2457 118.435 51.2457 120.521 51.2625 122.623 51.1616 123.683 51.0775 124.725 50.9935 125.735 50.9094 126.676 50.9262 128.627 50.943 130.679 50.9094 131.722 50.8757 132.748 50.8421 133.74 50.8084 134.732 50.8253 136.734 50.8421 138.735 50.8589 139.727 50.8925 140.737 50.9262 141.762 50.9598 142.788 50.9598 144.84 50.9766 146.808 51.0439 147.75 51.128 148.759 51.2121 149.785 51.2962 150.844 51.2962 152.93 51.313 154.982 51.2962 155.991 51.2625 157.017 51.2457 158.026 51.2289 159.018 51.2289 161.02 51.2457 163.038 51.2625 164.047 51.2794 165.056 51.2962 166.065 51.313 167.074 51.3298 169.109 51.3466 171.161 51.2962 172.187 51.2625 173.213 51.2289 174.205 51.1953 175.214 51.1953 177.199 51.2121 179.183 51.2625 180.159 51.3298 181.151 51.3971 182.16 51.4475 183.22 51.4644 185.289L51.5148 193.395C51.5316 195.43 51.5316 196.439 51.5316 197.448 51.5316 198.457 51.5316 199.466 51.5485 201.485 51.5653 203.637 51.3971 204.731 51.2289 205.79 51.0775 206.766 50.943 207.691 50.943 209.574 50.9598 211.492 51.0775 212.417 51.2121 213.409 51.3635 214.452 51.498 215.545 51.5148 217.681 51.5316 219.665 51.5653 220.675 51.6157 221.667 51.6662 222.693 51.6998 223.719 51.7166 225.787 51.7335 227.94 51.5485 229.05 51.3803 230.11 51.2289 231.085 51.0775 231.993 51.0944 233.894 51.1112 235.828 52.1876 237.779 54.4749 240.049 56.4426 242 58.4608 242.942 60.664 242.925 62.7495 242.908 63.8091 242.976 64.835 243.043 65.8441 243.11 66.8028 243.178 68.7873 243.161 70.8224 243.144 71.8483 243.161 72.8742 243.178 73.8833 243.194 151.484 243.211 153.502 243.194 155.453 243.178 156.394 243.093 157.404 243.009 158.43 242.908 159.506 242.808 161.608 242.808 163.576 242.791 260.635 242.723 261.644 242.639 262.67 242.555 263.73 242.471 265.832 242.454 267.901 242.438 268.927 242.488 269.952 242.538 270.945 242.589 271.937 242.623 273.922 242.623 275.957 242.606 276.966 242.606 277.975 242.606 278.984 242.606 389.414 242.606 391.432 242.589 393.45 242.572 394.459 242.572 395.485 242.555 396.494 242.538 397.52 242.538 399.538 242.522 401.641 242.505 529.612 242.589 530.638 242.673 531.647 242.757 532.589 242.824 534.557 242.824 536.575 242.808 537.584 242.791 538.593 242.791 539.602 242.774 540.628 242.757 542.663 242.757L660.964 242.69C662.898 242.673 663.84 242.572 664.849 242.471 665.892 242.353 666.951 242.236 669.07 242.236 671.173 242.219 672.232 242.32 673.258 242.404 674.267 242.488 675.209 242.572 677.16 242.555 679.145 242.538 680.154 242.505 681.146 242.471 682.172 242.438 683.198 242.387 685.25 242.387 687.318 242.37 688.328 242.37 689.37 242.387 690.363 242.387 691.372 242.387 693.339 242.387 695.374 242.37 696.4 242.387 697.426 242.404 698.435 242.421 761.622 242.438 763.624 242.421 765.709 242.404 766.769 242.488 767.795 242.555 768.804 242.623 769.745 242.69 771.713 242.69 773.698 242.673 879.872 242.656 880.865 242.639 881.891 242.623 882.917 242.606 884.969 242.589 886.869 242.572 887.777 242.438 888.753 242.269 889.812 242.101 890.905 241.933 893.058 241.916 895.211 241.899 896.304 242.068 897.364 242.219 898.339 242.37 899.264 242.505 901.165 242.488 903.216 242.471 1004.65 242.488 1005.67 242.522 1006.68 242.538 1007.68 242.555 1009.68 242.555 1011.66 242.538 1012.67 242.505 1013.66 242.454 1014.69 242.404 1125.3 242.37 1127.36 242.353 1129.32 242.337 1130.33 242.337 1131.31 242.32 1132.35 242.303 1133.36 242.303 1135.45 242.286 1137.98 242.269 1140.47 241.26 1142.14 239.595 1143.82 237.897 1144.81 235.391 1144.8 232.885 1144.78 230.782 1144.78 229.773 1144.78 228.714 1144.78 227.738 1144.78 226.712 1144.76 224.761 1144.75 222.794 1144.68 221.835 1144.61 220.809 1144.54 219.783 1144.46 218.724 1144.46 216.638 1144.44 214.704 1144.34 213.762 1144.24 212.753 1144.12 211.71 1144.01 210.634 1144.01 208.532 1143.99 206.463 1144.04 205.437 1144.07 204.411 1144.11 203.419 1144.16 202.427 1144.14 200.425 1144.12 198.356 1144.17 197.297 1144.22 196.288 1144.27 195.262 1144.33 194.303 1144.31 192.319 1144.29 190.351 1144.22 189.409 1144.16 188.383 1144.09 187.357 1144.01 186.298 1143.99 184.212 1143.97 182.11 1144.06 181.05 1144.14 180.024 1144.22 179.015 1144.29 178.057 1144.27 176.106 1144.26 174.104 1144.22 173.112 1144.21 172.103 1144.17 171.077 1144.14 170.051 1144.14 167.999 1144.12 166.031 1144.06 165.09 1143.97 164.081 1143.89 163.055 1143.79 161.995 1143.79 159.893 1143.77 157.824 1143.82 156.798 1143.87 155.772 1143.92 154.78 1143.96 153.788 1143.96 151.803 1143.94 149.684 1144.06 148.608 1144.17 147.565 1144.27 146.573 1144.39 145.631 1144.38 143.697 1144.36 141.712 1144.31 140.737 1144.26 139.744 1144.19 138.718 1144.14 137.676 1144.12 135.607 1144.11 133.622 1144.06 132.63 1144.01 131.638 1143.96 130.612 1143.9 129.569 1143.89 127.517 1143.87 125.516 1143.85 124.507 1143.84 123.498 1143.82 122.472 1143.79 121.463 1143.77 119.428 1143.75 117.292 1143.89 116.215 1144.02 115.173 1144.14 114.18 1144.26 113.255 1144.24 111.338 1144.22 109.353 1144.19 108.361 1144.14 107.369 1144.09 106.343 1144.04 105.317 1144.04 103.248 1144.02 101.314 1143.92 100.372 1143.8 99.3801 1143.69 98.3373 1143.57 97.2609 1143.55 95.1418 1143.53 93.0395 1143.64 91.9799 1143.72 90.9372 1143.8 89.9281 1143.89 88.9863 1143.87 87.0353 1143.85 85.0171 1143.84 84.0248 1143.82 83.0157 1143.8 81.9898 1143.77 80.9807 1143.77 78.9457 1143.75 76.9611 1143.7 75.9688 1143.65 74.9933 1143.59 73.9674 1143.53 72.9247 1143.52 70.856 1143.5 68.8378 1143.48 67.8455 1143.45 66.8364 1143.42 65.8105 1143.38 64.8014 1143.38 62.7495 1143.37 60.7481 1143.35 59.739 1143.33 58.7299 1143.32 57.704 1143.28 56.6949 1143.28 54.6599 1143.27 52.1203 1142.44 50.0853 1140.76 48.4202 1138.54 46.217 1136.49 45.1575 1134.49 45.1743 1132.49 45.1911 1131.48 45.2079 1130.47 45.2247 1129.44 45.2416 1128.42 45.2752 1126.36 45.2752 1124.48 45.292 1014 45.4602 1013.02 45.6284 1011.95 45.8302 1010.85 46.032 1008.67 46.0488 1006.52 46.0657 1005.41 45.8807 1004.35 45.7293 1003.37 45.5779 902.039 45.4266 900.139 45.4434 898.154 45.4602 897.162 45.5106 896.169 45.5611 895.127 45.6284 894.101 45.6788 892.032 45.6956 889.947 45.7125 888.887 45.6452 887.861 45.5779 886.852 45.5106 885.893 45.4602 883.926 45.4602 881.958 45.477 881.016 45.5443 880.007 45.6284 878.981 45.7125 772.773 45.7966 770.687 45.7966 768.753 45.8134 767.811 45.9143 766.802 46.0152 765.76 46.1329 702.505 46.2507 700.403 46.2507 698.25 46.2675 697.157 46.0993 696.081 45.9311 695.105 45.7797 694.18 45.6452 692.297 45.6452 690.379 45.662 689.454 45.7797 688.462 45.9143 687.419 46.0488 686.326 46.2002 684.207 46.217 682.206 46.2338 681.196 46.2675 680.187 46.3011 679.161 46.3347 678.136 46.3684 676.101 46.3852 673.931 46.402 672.821 46.2002 671.745 46.0152 670.769 45.847 669.861 45.6788 667.994 45.6956 665.993 45.7125 665 45.7293 663.991 45.7629 662.965 45.7966 661.939 45.8302 659.888 45.8302 657.987 45.847 546.834 45.9816 545.859 46.1497 544.799 46.3179 543.706 46.5029 541.553 46.5029 539.417 46.5198 538.341 46.3684 537.281 46.2338 536.289 46.0993 535.364 45.9816 533.464 45.9984 531.479 46.0152 530.52 46.0657 529.511 46.1329 528.485 46.2002 400.531 46.2675 398.462 46.2675 396.477 46.2843 395.502 46.3347 394.51 46.3852 393.484 46.4525 392.441 46.5029 390.372 46.5198 388.236 46.5366 277.756 46.402 276.697 46.2843 275.704 46.1666 274.779 46.0657 272.845 46.0657 270.861 46.0825 269.868 46.1329 268.876 46.1834 267.833 46.2507 266.807 46.3011 264.739 46.3179 262.737 46.3347 261.745 46.3684 260.753 46.402 259.727 46.4357 162.584 46.4693 160.532 46.4861 158.43 46.5029 157.353 46.402 156.31 46.3011 155.318 46.2002 154.359 46.1161 152.425 46.1329 150.441 46.1497 72.9079 46.2002 71.8819 46.2675 70.856 46.3347 69.8133 46.402 67.7446 46.4188 65.6759 46.4357 64.6164 46.3684 63.5905 46.3011 62.5813 46.2338 61.6227 46.1834 59.6381 46.2002 57.2331 46.2002 54.828 47.2429 53.0453 49.0593Z" fill="#45463D" fill-rule="nonzero" fill-opacity="1" transform="matrix(1 0 0 1.50722 1.51089 0)"/></g></svg>