<svg width="476" height="132" xmlns="http://www.w3.org/2000/svg" xmlns:xlink="http://www.w3.org/1999/xlink" overflow="hidden"><defs><clipPath id="clip0"><rect x="0" y="0" width="476" height="132"/></clipPath><clipPath id="clip1"><rect x="0" y="0" width="476" height="131"/></clipPath><clipPath id="clip2"><rect x="0" y="0" width="477" height="131"/></clipPath><clipPath id="clip3"><rect x="0" y="0" width="477" height="131"/></clipPath></defs><g clip-path="url(#clip0)"><g clip-path="url(#clip1)"><g clip-path="url(#clip2)"><g clip-path="url(#clip3)"><path d="M458.796 99.0353C458.393 99.445 457.963 99.7808 457.513 100.043 456.398 100.694 454.994 101.043 453.443 101.05 452.57 101.057 452.127 101.003 451.697 100.949 451.314 100.902 450.944 100.862 450.199 100.862 449.433 100.869 405.302 100.902 404.913 100.936 404.496 100.976 404.06 101.017 403.207 101.017 402.414 101.023 402.011 101.03 401.615 101.043 401.205 101.05 360.694 101.064 359.868 101.064 359.075 101.07 358.679 101.084 358.276 101.097 357.866 101.111 357.45 101.124 356.631 101.131L353.393 101.144C352.534 101.151 352.097 101.104 351.674 101.064 351.285 101.023 308.926 100.99 308.167 100.99 307.382 100.996 306.992 101.017 306.602 101.037 306.186 101.057 305.77 101.084 304.937 101.084 304.171 101.09 278.973 101.124 278.576 101.164 278.153 101.205 277.723 101.245 276.87 101.252 276.031 101.258 275.601 101.231 275.185 101.205 274.788 101.178 274.406 101.158 273.633 101.164 272.821 101.171 272.411 101.164 272.001 101.164 271.598 101.158 271.202 101.158 270.396 101.164L267.159 101.184C266.306 101.191 265.869 101.151 265.446 101.111 265.057 101.077 264.687 101.037 263.929 101.043 263.19 101.05 262.834 101.097 262.451 101.158 262.041 101.218 217.547 101.285 216.667 101.292 215.841 101.299 215.425 101.278 215.009 101.265 214.619 101.252 214.223 101.238 213.437 101.238 212.645 101.245 212.248 101.252 211.852 101.265 211.442 101.278 160.346 101.292 159.527 101.292 158.688 101.299 158.258 101.272 157.841 101.245 157.445 101.218 157.069 101.198 156.297 101.198 155.518 101.205 111.433 101.225 111.044 101.252 110.634 101.278 110.211 101.299 109.371 101.305 108.572 101.312 108.169 101.319 107.766 101.326 107.357 101.332 106.947 101.339 106.134 101.346 105.328 101.352 104.925 101.352 104.522 101.359 104.119 101.366 65.3273 101.366 64.5214 101.373 63.6953 101.379 63.2789 101.366 62.8625 101.352 62.4663 101.339 62.0767 101.326 61.2842 101.332 60.4313 101.339 29.4164 101.299 29 101.265 28.6038 101.231 28.2344 101.205 27.4688 101.205 26.6763 101.211 26.2867 101.225 25.8905 101.245 25.4741 101.265 25.0644 101.278 24.2383 101.285 22.9153 101.292 21.6325 100.929 20.3161 100.177 19.4028 99.6532 18.0931 98.8003 17.2805 97.4167 16.5283 96.134 16.1253 94.7505 16.1186 93.4207 16.1119 92.5342 16.179 92.064 16.2395 91.6476 16.2932 91.2715 16.3469 90.9089 16.3402 90.1768 16.3335 89.4112 16.2999 89.0418 16.2596 88.6455 16.2193 88.2224 16.179 87.7926 16.1723 86.9329 16.1656 86.1337 16.1522 85.7375 16.1387 85.3412 16.1253 84.9315 16.1119 84.5219 16.1052 83.6958 16.0984 82.8966 16.0917 82.4936 16.085 82.0907 16.0783 81.681 16.0649 81.2713 16.0649 80.4586 16.0581 79.6258 16.0783 79.2094 16.0984 78.7863 16.1186 78.3968 16.132 78.0006 16.132 77.2215 16.1253 76.4021 16.1387 75.9857 16.1522 75.576 16.1656 75.1798 16.1723 74.7836 16.1656 73.9911 16.1589 73.1717 16.1723 72.7553 16.179 72.3456 16.1858 71.9494 16.1925 71.5464 16.1925 70.7539 16.1858 69.9816 16.1589 69.6055 16.132 69.2025 16.0984 68.7861 16.0716 68.3563 16.0649 67.5168 16.0581 66.6974 16.0716 66.2877 16.0783 65.878 16.085 65.4818 16.0917 65.0788 16.0917 64.2863 16.085 63.4737 16.0917 63.064 16.0917 62.661 16.0917 62.2581 16.0984 61.8551 16.0917 61.0559 16.085 60.3037 16.0447 59.941 15.9977 59.5515 15.9507 59.1284 15.897 58.6851 15.8902 57.8187 15.8835 56.9927 15.8902 56.583 15.897 56.1733 15.9037 55.7771 15.9104 55.3808 15.9037 54.5883 15.897 53.7622 15.9104 53.3458 15.9238 52.9294 15.9373 52.5332 15.9507 52.1369 15.944 51.3512 15.9373 50.5049 15.9641 50.0818 15.991 49.6654 16.0179 49.2692 16.038 48.8931 16.038 48.1207 16.0313 47.3416 16.0111 46.9454 15.991 46.5559 15.9708 46.1395 15.944 45.7231 15.9373 44.8836 15.9305 44.0911 15.9171 43.6948 15.9037 43.2986 15.8902 42.8889 15.8768 42.4792 15.8701 41.6531 15.8634 40.8539 15.8567 40.451 15.8499 40.0547 15.8432 39.645 15.8298 39.2353 15.8298 38.4227 15.8231 37.6033 15.8298 37.1937 15.8298 36.784 15.8365 36.3877 15.8365 35.9848 15.8298 35.1855 15.8231 34.3662 15.8298 33.9565 15.8298 33.5468 15.8298 33.1506 15.8298 32.7476 15.8298 31.9484 15.8231 31.1022 15.8567 30.6723 15.8835 30.2559 15.9104 29.8597 15.9373 29.4836 15.9305 28.7112 15.9238 27.959 15.8835 27.5964 15.8298 27.2136 15.7761 26.7837 15.7223 26.3472 15.7156 25.4741 15.7089 24.6816 15.6955 24.2853 15.682 23.8891 15.6686 23.4794 15.6552 23.0697 15.6485 22.2437 15.6418 20.9945 16.038 19.6915 16.8641 18.2476 17.5894 16.9783 18.5834 15.9507 19.7386 15.2724 21.0683 14.4933 22.5795 14.3858 23.7481 14.3791 24.5406 14.3724 24.9368 14.359 25.3331 14.3388 25.7495 14.3187 26.1658 14.2985 26.9919 14.2985 27.7576 14.2918 28.1269 14.2582 28.5165 14.2179 28.9396 14.1776 59.9544 14.1306 60.8141 14.1239 61.6133 14.1172 62.0163 14.1172 62.4193 14.1172 62.8289 14.1172 63.2319 14.1172 64.0513 14.1105 64.9243 14.1038 103.75 14.1642 104.18 14.2179 104.563 14.265 104.925 14.312 105.664 14.312 106.443 14.3053 106.819 14.2851 107.222 14.2582 107.632 14.2314 108.062 14.2045 108.901 14.1978 109.721 14.1911 110.13 14.1978 110.54 14.2112 110.936 14.2179 155.027 14.2247 155.826 14.2179 156.653 14.2112 157.069 14.2247 157.479 14.2381 157.875 14.2515 158.271 14.2582 159.064 14.2582 159.809 14.2515 210.858 14.2112 211.241 14.1575 211.671 14.1038 212.107 14.05 212.98 14.0433 213.759 14.0366 214.135 14.0165 214.538 13.9896 214.948 13.9627 215.378 13.9359 216.217 13.9292 217.117 13.9224 217.594 14.0097 218.017 14.0836 218.407 14.1508 262.76 14.2112 263.479 14.2045 264.258 14.1978 264.634 14.1776 265.037 14.1508 265.446 14.1239 265.876 14.0971 266.716 14.0971 267.501 14.0903 267.891 14.0702 268.281 14.05 268.697 14.0299 269.113 14.0097 269.946 14.003 270.718 13.9963 271.101 13.9694 271.498 13.9426 271.914 13.9157 272.337 13.8821 273.183 13.8754 274.03 13.8687 274.459 13.9023 274.876 13.9359 275.272 13.9627 275.641 13.9963 276.414 13.9896L279.651 13.9762C280.437 13.9694 305.669 13.956 306.059 13.9426 306.475 13.9292 306.885 13.9157 307.711 13.909 308.496 13.9023 350.882 13.8889 351.278 13.8687 351.694 13.8486 352.104 13.8284 352.937 13.8284 353.817 13.8217 354.287 13.8889 354.703 13.9493 355.079 14.003 355.442 14.0568 356.174 14.05 356.906 14.0433 357.248 13.9896 357.638 13.9292 358.054 13.862 358.518 13.7881 359.404 13.7814 360.284 13.7747 400.849 13.8418 401.259 13.8956 401.642 13.9493 401.998 13.9963 402.736 13.9963 403.529 13.9896 403.932 13.9829 404.328 13.9694 404.738 13.956 448.903 13.9493 449.729 13.9426 450.548 13.9359 450.951 13.9426 451.361 13.9493 451.764 13.956 452.16 13.956 452.959 13.956 454.397 13.9493 455.726 14.2851 456.908 14.9634 458.184 15.6888 459.178 16.6492 459.857 17.811 460.562 19.0199 460.925 20.3564 460.938 21.7802 460.945 22.5257 460.992 22.8884 461.039 23.2712 461.099 23.701 461.153 24.1443 461.16 25.0174 461.166 25.8771 461.119 26.3203 461.079 26.7434 461.039 27.133 461.005 27.5023 461.005 28.2613 461.012 29.0873 460.998 29.5037 460.985 29.9134 460.972 30.3097 460.965 30.7059 460.965 31.4984 460.972 32.2506 461.012 32.6133 461.059 32.9961 461.113 33.4192 461.166 33.8625 461.173 34.7289 461.18 35.6087 461.119 36.0519 461.066 36.4817 461.019 36.8646 460.972 37.2205 460.972 37.966 460.978 38.7383 461.005 39.1145 461.032 39.5107 461.066 39.9271 461.092 40.3569 461.099 41.1964 461.106 42.0024 461.106 42.4053 461.113 42.8083 461.119 43.218 461.126 43.6209 461.126 44.4336 461.133 45.2328 461.139 45.6291 461.146 46.032 461.153 46.4417 461.166 46.8514 461.166 47.6707 461.173 48.4565 461.187 48.8528 461.207 49.2423 461.227 49.6587 461.24 50.0684 461.247 50.9012 461.254 51.7675 461.207 52.2041 461.16 52.6272 461.119 53.0167 461.079 53.3794 461.086 54.1316 461.092 54.9577 461.079 55.3741 461.066 55.7838 461.052 56.18 461.045 56.5763 461.045 57.3688 461.052 58.1411 461.079 58.5172 461.106 58.9135 461.139 59.3298 461.166 59.7597 461.173 60.5992 461.18 61.3715 461.207 61.7476 461.24 62.1439 461.274 62.5603 461.307 62.9901 461.314 63.8363 461.321 64.7027 461.274 65.1393 461.227 65.5691 461.187 65.9519 461.146 66.3213 461.146 67.0735 461.153 67.8929 461.146 68.3025 461.139 68.7122 461.133 69.1085 461.126 69.5114 461.133 70.3106 461.139 71.0696 461.173 71.4389 461.213 71.8285 461.254 72.2516 461.301 72.6814 461.301 73.5344 461.307 74.3067 461.334 74.6895 461.361 75.0858 461.388 75.5022 461.422 75.9253 461.422 76.7715 461.428 77.611 461.401 78.0341 461.381 78.4438 461.361 78.8468 461.341 79.2229 461.348 80.002 461.354 80.8549 461.314 81.2914 461.281 81.7078 461.247 82.0974 461.213 82.4735 461.22 83.2324 461.227 83.9779 461.274 84.3405 461.321 84.7234 461.375 85.1532 461.435 85.5964 461.442 86.4628 461.448 87.3426 461.381 87.8128 461.321 88.2291 461.267 88.6052 461.213 88.9679 461.22 89.7 461.227 90.4925 461.24 90.8887 461.254 91.2783 461.274 91.6879 461.287 92.1043 461.294 92.9304 461.301 94.4079 460.965 95.7512 460.293 96.9198 459.85 97.7928 459.34 98.4779 458.796 99.0353ZM19.658 17.8916C19.2684 18.2812 18.9259 18.7446 18.6304 19.255 17.9857 20.3833 17.6767 21.3571 17.6767 22.2437 17.6834 23.0362 17.6969 23.4324 17.7103 23.8287 17.7237 24.2383 17.7372 24.648 17.7439 25.4741 17.7506 26.2196 17.7909 26.5822 17.8446 26.9718 17.8984 27.4016 17.9521 27.8382 17.9588 28.7112 17.9655 29.5575 17.9319 29.9873 17.9051 30.4037 17.8782 30.7999 17.8513 31.176 17.8581 31.9484 17.8648 32.7543 17.8581 33.1573 17.8581 33.5603 17.8581 33.9632 17.8581 34.3662 17.8581 35.1788 17.8648 35.9915 17.8581 36.4012 17.8581 36.8041 17.8513 37.2071 17.8513 37.6101 17.8581 38.416 17.8648 39.2152 17.8715 39.6182 17.8782 40.0144 17.8849 40.4241 17.8984 40.8271 17.8984 41.6464 17.9051 42.4389 17.9185 42.8352 17.9319 43.2314 17.9454 43.6411 17.9588 44.0508 17.9655 44.8769 17.9722 45.6626 17.9924 46.0522 18.0125 46.4484 18.0327 46.8648 18.0595 47.2812 18.0663 48.114 18.073 48.9535 18.0461 49.3833 18.0192 49.793 17.9924 50.1893 17.9722 50.5654 17.9722 51.3444 17.9789 52.1705 17.9655 52.5802 17.9521 52.9966 17.9387 53.3928 17.9252 53.7891 17.9319 54.5816 17.9387 55.3942 17.9319 55.8039 17.9252 56.2136 17.9185 56.6166 17.9118 57.0128 17.9185 57.8187 17.9252 58.5709 17.9655 58.9403 18.0125 59.3298 18.0595 59.753 18.1133 60.1895 18.12 61.0559 18.1267 61.8685 18.12 62.2782 18.12 62.6812 18.12 63.0841 18.1133 63.4871 18.12 64.2863 18.1267 65.1124 18.1133 65.5221 18.1066 65.9318 18.0998 66.328 18.0931 66.7243 18.0931 67.5235 18.0998 68.2958 18.1267 68.6719 18.1536 69.0749 18.1871 69.4913 18.214 69.9211 18.2207 70.7606 18.2274 71.58 18.214 71.9964 18.2073 72.4061 18.2006 72.8023 18.1939 73.2053 18.1939 73.9978 18.2006 74.8239 18.1871 75.2335 18.1804 75.6499 18.167 76.0462 18.1603 76.4424 18.167 77.2349 18.1737 78.0677 18.1536 78.4841 18.1334 78.9072 18.1133 79.2968 18.0998 79.693 18.0998 80.4721 18.1066 81.2713 18.1133 81.6743 18.12 82.0772 18.1267 82.4869 18.1401 82.8966 18.1401 83.7092 18.1468 84.5017 18.1603 84.898 18.1737 85.2942 18.1871 85.7039 18.2006 86.1203 18.2073 86.9464 18.214 87.712 18.2476 88.0814 18.2879 88.4776 18.3282 88.9007 18.3685 89.3306 18.3752 90.1902 18.3819 91.0768 18.3148 91.5469 18.2543 91.9633 18.2006 92.3394 18.1468 92.7021 18.1536 93.4341 18.1603 94.4147 18.4625 95.4489 19.0401 96.4362 19.4766 97.1817 20.1885 97.813 21.337 98.4712 22.3511 99.0555 23.2779 99.3241 24.2585 99.3174 25.051 99.3107 25.4405 99.2972 25.8368 99.2771 26.2532 99.2569 26.6628 99.2435 27.4889 99.2368 28.3419 99.2301 28.7717 99.2704 29.1948 99.304 29.5911 99.3375 60.5455 99.3644 61.3111 99.3644 62.1372 99.3577 62.5469 99.3711 62.9565 99.3846 63.3528 99.398 63.749 99.4114 64.5415 99.4047 65.3475 99.398 104.133 99.398 104.536 99.3913 104.939 99.3846 105.348 99.3846 106.161 99.3778 106.96 99.3711 107.363 99.3644 107.766 99.3577 108.176 99.351 108.579 99.3443 109.398 99.3375 110.177 99.3308 110.574 99.3107 110.963 99.2838 111.373 99.2569 155.491 99.2368 156.323 99.2301 157.163 99.2234 157.593 99.2502 158.009 99.2771 158.405 99.304 158.782 99.3241 159.561 99.3241 160.36 99.3174 211.442 99.3107 211.839 99.2972 212.248 99.2838 212.658 99.2704 213.471 99.2704 214.297 99.2637 214.713 99.2838 215.123 99.2972 215.519 99.3107 215.909 99.3241 216.701 99.3241 217.44 99.3174 217.796 99.2704 218.179 99.2099 218.588 99.1495 263.082 99.0823 263.962 99.0756 264.822 99.0689 265.258 99.1092 265.675 99.1495 266.064 99.1831 266.434 99.2234 267.193 99.2167L270.43 99.1965C271.242 99.1898 271.652 99.1965 272.062 99.1965 272.465 99.1965 272.861 99.2032 273.667 99.1965 274.506 99.1898 274.936 99.2167 275.353 99.2435 275.749 99.2704 276.132 99.2905 276.904 99.2838 277.67 99.2771 278.039 99.2435 278.429 99.2032 278.852 99.1629 304.111 99.1226 304.97 99.1159 305.756 99.1092 306.146 99.089 306.542 99.0689 306.958 99.0488 307.375 99.0219 308.208 99.0219 309.067 99.0152 351.499 99.0622 351.923 99.1025 352.312 99.1428 352.682 99.1764 353.434 99.1764L356.671 99.1629C357.463 99.1562 357.86 99.1428 358.263 99.1293 358.672 99.1159 359.089 99.1025 359.908 99.0958 360.714 99.089 401.212 99.0823 401.615 99.0756 402.018 99.0689 402.428 99.0555 403.24 99.0555 404.006 99.0488 404.382 99.0152 404.778 98.9816 405.195 98.9413 449.386 98.901 450.239 98.901 451.112 98.8943 451.556 98.948 451.985 99.0017 452.375 99.0488 452.738 99.089 453.49 99.089 454.672 99.0823 455.76 98.8204 456.559 98.3503 457.311 97.907 457.996 97.1414 458.648 95.9997 459.145 95.1333 459.387 94.1326 459.387 93.011 459.38 92.2185 459.366 91.8223 459.353 91.4327 459.333 91.023 459.319 90.6066 459.313 89.7806 459.306 88.9007 459.373 88.4306 459.434 88.0142 459.487 87.6381 459.541 87.2755 459.534 86.5434 459.528 85.7979 459.481 85.4353 459.434 85.0524 459.38 84.6226 459.319 84.1794 459.313 83.3063 459.306 82.4533 459.346 82.0168 459.38 81.5937 459.413 81.2041 459.447 80.828 459.44 80.0691 459.434 79.2363 459.46 78.8065 459.481 78.3968 459.501 77.9938 459.521 77.6177 459.514 76.832 459.508 76.0529 459.487 75.6768 459.454 75.2805 459.427 74.8709 459.393 74.441 459.393 73.6015 459.387 72.8426 459.353 72.4732 459.313 72.0837 459.272 71.6606 459.225 71.2307 459.225 70.3711 459.219 69.5517 459.225 69.142 459.232 68.7324 459.239 68.3361 459.246 67.9332 459.239 67.1339 459.232 66.2676 459.279 65.831 459.326 65.4012 459.366 65.0184 459.407 64.649 459.407 63.8968 459.4 63.1244 459.373 62.7483 459.34 62.3521 459.306 61.9357 459.272 61.5059 459.266 60.6596 459.259 59.8873 459.232 59.5112 459.205 59.1082 459.172 58.6918 459.145 58.2687 459.138 57.4292 459.131 56.6031 459.145 56.1934 459.158 55.7838 459.172 55.3875 459.178 54.9913 459.178 54.1988 459.172 53.3324 459.219 52.8959 459.266 52.4727 459.306 52.0832 459.346 51.7205 459.34 50.9683 459.333 50.1758 459.319 49.7796 459.299 49.3833 459.279 48.9737 459.266 48.5573 459.259 47.7312 459.252 46.9253 459.246 46.529 459.239 46.126 459.232 45.7164 459.219 45.3067 459.219 44.494 459.212 43.6881 459.212 43.2851 459.205 42.8822 459.199 42.4725 459.192 42.0695 459.192 41.2569 459.185 40.4845 459.158 40.1084 459.131 39.7122 459.098 39.2958 459.071 38.8727 459.064 38.0264 459.058 37.1466 459.118 36.7034 459.172 36.2735 459.219 35.8907 459.266 35.5348 459.266 34.7893 459.259 34.0371 459.219 33.6744 459.172 33.2849 459.118 32.8618 459.064 32.4185 459.058 31.5521 459.051 30.7261 459.064 30.3097 459.078 29.9 459.091 29.5037 459.098 29.1075 459.098 28.315 459.091 27.4486 459.138 27.0121 459.178 26.589 459.219 26.1994 459.252 25.83 459.252 25.0711 459.246 24.3256 459.199 23.963 459.152 23.5734 459.091 23.1436 459.037 22.7004 459.031 21.8273 459.024 20.7594 458.755 19.7654 458.225 18.8588 457.728 18.0058 456.982 17.2939 456.008 16.7365 455.122 16.226 454.155 15.9843 453.06 15.991 452.241 15.9977 451.838 15.991 451.428 15.9843 451.025 15.9776 450.629 15.9776 449.83 15.9776 449.03 15.9843 404.872 15.991 404.476 16.0044 404.066 16.0179 403.657 16.0246 402.844 16.0313 401.964 16.038 401.494 15.9708 401.084 15.9171 400.702 15.8634 360.251 15.8164 359.512 15.8164 358.78 15.8231 358.444 15.8768 358.048 15.9373 357.631 16.0044 357.161 16.0783 356.281 16.085 355.402 16.0917 354.931 16.0246 354.515 15.9641 354.139 15.9104 353.776 15.8567 353.044 15.8634 352.258 15.8701 351.862 15.8835 351.466 15.9037 351.05 15.9238 308.644 15.944 307.818 15.944 307.019 15.9507 306.623 15.9641 306.226 15.9776 305.817 15.991 280.578 16.0044 279.758 16.0111L276.521 16.0246C275.675 16.0313 275.245 15.9977 274.829 15.9641 274.432 15.9373 274.063 15.9037 273.291 15.9104 272.518 15.9171 272.136 15.944 271.739 15.9708 271.323 15.9977 270.9 16.0313 270.054 16.038 269.268 16.0447 268.878 16.0649 268.482 16.085 268.066 16.1052 267.649 16.1253 266.823 16.132 266.044 16.1387 265.661 16.1589 265.265 16.1858 264.855 16.2126 264.426 16.2395 263.593 16.2395 262.693 16.2462 218.192 16.1589 217.776 16.085 217.386 16.0179 217.057 15.9574 216.338 15.9641 215.559 15.9708 215.183 15.991 214.78 16.0179 214.371 16.0447 213.941 16.0716 213.101 16.0783 212.349 16.085 211.986 16.1253 211.604 16.179 211.174 16.2328 160.058 16.2865 159.185 16.2932 158.358 16.2999 157.942 16.2865 157.532 16.2731 157.136 16.2596 156.74 16.2529 155.947 16.2529 155.128 16.2596 111.024 16.2529 110.614 16.2395 110.218 16.2328 109.815 16.226 109.022 16.2328 108.243 16.2395 107.86 16.2596 107.464 16.2865 107.054 16.3134 106.624 16.3402 105.792 16.3469 104.919 16.3537 66.0929 16.2932 65.6631 16.2395 65.2803 16.1925 64.9176 16.1455 64.1789 16.1455 63.3528 16.1522 62.9498 16.1522 62.5334 16.1522 62.1372 16.1522 61.7342 16.1522 60.9417 16.1589 60.1761 16.1656 29.2284 16.1992 28.8321 16.2395 28.409 16.2798 27.9725 16.3268 27.1128 16.3335 26.327 16.3402 25.9308 16.3537 25.5345 16.3738 25.1181 16.394 24.7017 16.4141 23.8689 16.4141 22.5056 16.4208 21.5788 16.6156 20.8601 17.032 20.3833 17.2402 20.0072 17.5424 19.658 17.8916Z" fill="#45463D" fill-rule="nonzero" fill-opacity="1" transform="matrix(1 0 0 1.14455 0.603341 0)"/><path d="M457.036 96.6041C456.123 97.5309 454.806 98.0682 453.423 98.0749 452.597 98.0816 452.194 98.0816 451.777 98.0884 451.381 98.0951 450.978 98.0951 450.192 98.1018 449.393 98.1085 405.242 98.1219 404.839 98.1421 404.429 98.1622 404.019 98.1757 403.2 98.1824 402.381 98.1891 401.978 98.1824 401.568 98.1689 401.165 98.1622 360.667 98.1555 359.868 98.1555 359.008 98.1622 358.572 98.0951 358.148 98.0346 357.759 97.9742 357.389 97.9205 356.631 97.9272 355.872 97.9339 355.502 97.9876 355.113 98.0548 354.69 98.1219 354.253 98.1958 353.393 98.1958 352.581 98.2025 352.178 98.2092 351.775 98.216 351.372 98.2227 308.973 98.2294 308.174 98.2361 307.341 98.2428 306.918 98.2092 306.508 98.1824 306.105 98.1555 305.729 98.1286 304.944 98.1286 304.131 98.1354 278.892 98.1286 278.482 98.1219 278.079 98.1152 277.683 98.1085 276.877 98.1152 276.085 98.1219 275.675 98.1152 275.279 98.1152 274.869 98.1152 274.466 98.1152 273.647 98.1152 272.847 98.1219 272.451 98.1354 272.048 98.1488 271.639 98.1622 271.229 98.1824 270.41 98.1824 269.57 98.1891 269.147 98.1555 268.737 98.1152 268.334 98.0816 267.958 98.0481 267.179 98.0548 266.407 98.0615 266.031 98.1018 265.634 98.1421 265.218 98.1891 264.795 98.2361 263.949 98.2361L216.694 98.2563C215.888 98.263 215.485 98.2697 215.082 98.2697 214.68 98.2764 214.27 98.2831 213.457 98.2831 212.618 98.2898 212.195 98.2563 211.785 98.2227 211.382 98.1891 160.326 98.1622 159.54 98.1622 158.735 98.1689 158.332 98.1689 157.922 98.1757 157.519 98.1824 157.109 98.1824 156.303 98.1891 155.491 98.1958 111.4 98.1958 110.99 98.1958 110.587 98.1958 110.184 98.1958 109.378 98.2025 108.552 98.2092 108.136 98.1891 107.726 98.1689 107.33 98.1488 106.933 98.1354 106.141 98.1354 105.355 98.1421 104.979 98.1689 104.576 98.2025 104.166 98.2361 65.3609 98.2697 64.5281 98.2764 63.749 98.2831 63.3662 98.3167 62.97 98.357 62.5603 98.3973 62.1305 98.4376 61.291 98.4376 60.4716 98.4443 29.4769 98.4376 29.0672 98.4309 28.6642 98.4242 28.268 98.4174 27.4621 98.4242 26.6293 98.4309 26.1994 98.404 25.7897 98.3771 25.3868 98.3503 25.004 98.3234 24.2182 98.3301 22.9891 98.3368 21.8407 97.8197 20.8064 96.7921 20.0609 96.0534 19.067 94.8982 19.0602 93.3938 19.0535 92.5342 19.1274 92.0909 19.1946 91.6678 19.255 91.2783 19.3154 90.9156 19.3087 90.1567 19.302 89.3575 19.2886 88.9612 19.2684 88.5582 19.2483 88.1486 19.2349 87.7389 19.2281 86.9195 19.2214 86.1539 19.1744 85.7845 19.1207 85.3882 19.067 84.9718 19.0065 84.5353 18.9998 83.6891 18.9931 82.8294 19.0602 82.3929 19.1274 81.9698 19.1878 81.5802 19.2416 81.2108 19.2416 80.4586 19.2349 79.646 19.2349 79.243 19.2349 78.8401 19.2349 78.4371 19.2349 78.0341 19.2281 77.2282L19.208 73.9911C19.2013 73.2053 19.1811 72.809 19.1543 72.4128 19.1274 72.0098 19.1072 71.5867 19.1005 70.7606 19.0938 69.9345 19.114 69.5249 19.1274 69.1085 19.1408 68.7122 19.1543 68.316 19.1543 67.5235 19.1475 66.7243 19.1408 66.3213 19.1341 65.925 19.1274 65.5154 19.1207 65.1124 19.114 64.293 19.1072 63.4737 19.114 63.0707 19.1274 62.661 19.1341 62.2581 19.1408 61.8618 19.1408 61.0626 19.1341 60.2768 19.1072 59.9007 19.0737 59.4978 19.0401 59.0881 19.0065 58.665 19.0065 57.8322 18.9998 57.0262 18.9931 56.63 18.9796 56.227 18.9662 55.8173 18.9528 55.4077 18.9528 54.595 18.9461 53.7757 18.9595 53.366 18.9729 52.9563 18.9864 52.56 18.9998 52.1571 18.9931 51.3646 18.9864 50.5251 19.0267 50.102 19.0602 49.6856 19.0938 49.2826 19.1274 48.9065 19.1207 48.1274 19.114 47.3416 19.0871 46.9655 19.0535 46.5626 19.0199 46.1529 18.9864 45.7298 18.9864 44.897 18.9796 44.0709 18.9998 43.6478 19.0199 43.2448 19.0401 42.8352 19.0602 42.4523 19.0535 41.6598 19.0468 40.8875 19.0065 40.5114 18.9662 40.1084 18.9259 39.692 18.8789 39.2689 18.8722 38.4227 18.8655 37.6302 18.852 37.2339 18.8319 36.8377 18.8252 36.428 18.805 36.0183 18.805 35.1923 18.7983 34.3662 18.8185 33.9565 18.8319 33.5468 18.8453 33.1506 18.8655 32.7543 18.8588 31.9551 18.852 31.129 18.8722 30.7126 18.8923 30.303 18.9125 29.9067 18.9259 29.5105 18.9259 28.718 18.9192 27.912 18.9259 27.5023 18.9259 27.0994 18.9326 26.6897 18.9326 26.2867 18.9259 25.4741 18.9192 24.7017 18.8789 24.3189 18.8386 23.9227 18.7916 23.5063 18.7446 23.0765 18.7446 22.2302 18.7379 20.9206 19.2819 19.611 20.2288 18.6506 21.1892 17.6767 22.4922 17.1126 23.7951 17.1059 24.6279 17.0991 25.0443 17.126 25.4539 17.1529 25.8569 17.1797 26.2397 17.1999 27.0255 17.1932 27.8113 17.1864 28.1941 17.1663 28.6038 17.1394 29.0135 17.1126 60.0149 17.0857 60.841 17.079 61.6805 17.0723 62.1103 17.1126 62.5267 17.1529 62.923 17.1932 63.3058 17.2267 64.0781 17.22 64.8773 17.2133 103.656 17.1999 104.059 17.1864 104.469 17.173 104.878 17.1596 105.691 17.1529 106.483 17.1462 106.88 17.126 107.276 17.1059 107.692 17.079 108.102 17.0588 108.928 17.0521 109.774 17.0454 110.211 17.0991 110.627 17.1462 111.024 17.1932 155.088 17.2335 155.853 17.2335 156.646 17.2267 157.035 17.2066 157.432 17.1864 157.841 17.1596 158.258 17.1394 159.084 17.1327 159.876 17.126 210.939 17.1059 211.342 17.079 211.751 17.0521 212.168 17.0253 212.994 17.0253 213.847 17.0185 214.283 17.079 214.7 17.1327 215.089 17.1864 215.465 17.2335 216.224 17.2267 216.983 17.22 217.346 17.1663 217.735 17.0991 218.158 17.032 262.619 16.9581 263.479 16.9581 264.278 16.9514 264.681 16.9447 265.084 16.9312 265.493 16.9178 265.896 16.9044 266.716 16.9044 267.582 16.8977 268.025 16.9783 268.455 17.0521 268.845 17.1193 269.207 17.1864 269.953 17.1797 270.745 17.173 271.148 17.1596 271.545 17.1462 271.954 17.1327 272.364 17.1193 273.19 17.1126 273.956 17.1059 274.325 17.0588 274.721 17.0051 275.138 16.9514 275.574 16.8909 276.42 16.8842 277.28 16.8775 277.717 16.9447 278.146 17.0118 278.536 17.0723 278.905 17.126 279.664 17.126 280.437 17.1193 305.649 17.079 306.045 17.0387 306.461 16.9917 306.885 16.9447 307.731 16.9447 308.517 16.938 350.888 16.9111 351.291 16.8775 351.701 16.8439 352.124 16.8104 352.957 16.8104 353.79 16.8036 354.213 16.8305 354.616 16.8574 355.019 16.8842 355.402 16.9044 356.194 16.9044 356.987 16.8977 357.383 16.8775 357.779 16.8574 358.195 16.8305 358.605 16.8104 359.431 16.8036 360.291 16.7969 400.829 16.8708 401.252 16.9312 401.642 16.9917 402.011 17.0521 402.763 17.0454 403.516 17.0387 403.878 16.9715 404.268 16.9044 404.698 16.8238 448.896 16.7432 449.762 16.7365 450.568 16.7298 450.971 16.723 451.374 16.7163 451.784 16.7096 452.187 16.6962 453 16.6962 454.168 16.6895 455.297 17.2402 456.445 18.3819 457.365 19.2953 457.835 20.4505 457.849 21.8138 457.855 22.613 457.862 23.016 457.869 23.419 457.875 23.8287 457.889 24.2316 457.889 25.0443 457.896 25.8435 457.902 26.2397 457.916 26.6427 457.929 27.0524 457.943 27.4621 457.943 28.2814 457.949 29.0739 457.97 29.4702 457.99 29.8597 458.017 30.2694 458.037 30.6858 458.043 31.5118 458.05 32.3178 458.057 32.714 458.064 33.117 458.07 33.5267 458.084 33.9296 458.084 34.7423 458.09 35.5818 458.05 36.0049 458.017 36.4146 457.983 36.8176 457.949 37.1937 457.956 37.9727 457.963 38.7451 458.003 39.1212 458.05 39.5174 458.097 39.9338 458.144 40.3636 458.151 41.2032 458.158 41.9957 458.171 42.3919 458.191 42.7881 458.211 43.1978 458.231 43.6075 458.231 44.4336 458.238 45.2865 458.184 45.7164 458.131 46.1328 458.084 46.529 458.037 46.8984 458.043 47.664 458.05 48.4632 458.057 48.8662 458.064 49.2692 458.07 49.6788 458.084 50.0818 458.09 50.8945 458.097 51.687 458.117 52.0832 458.137 52.4795 458.158 52.8891 458.178 53.3055 458.184 54.1249 458.191 54.9174 458.211 55.3136 458.231 55.7032 458.258 56.1129 458.278 56.5292 458.285 57.3553 458.292 58.2016 458.245 58.6314 458.198 59.0478 458.158 59.444 458.111 59.8201 458.117 60.5925 458.124 61.4186 458.104 61.8282 458.084 62.2446 458.064 62.6409 458.05 63.0371 458.05 63.8296 458.057 64.6154 458.084 64.9915 458.117 65.3945 458.151 65.8042 458.191 66.2273 458.191 67.0668 458.198 67.8727 458.211 68.269 458.218 68.6719 458.231 69.0816 458.245 69.4846 458.245 70.3039 458.252 71.1434 458.218 71.5666 458.184 71.9762 458.151 72.3792 458.124 72.762 458.131 73.5411 458.137 74.3269 458.164 74.7097 458.191 75.1126 458.218 75.5223 458.252 75.9454 458.258 76.7715 458.265 77.5976 458.245 78.0207 458.218 78.4237 458.198 78.8334 458.178 79.2162 458.184 80.0087 458.191 80.8347 458.171 81.2444 458.158 81.6541 458.144 82.0504 458.124 82.4466 458.131 83.2458 458.137 84.0182 458.178 84.3943 458.218 84.7972 458.265 85.2136 458.312 85.6435 458.312 86.483 458.319 87.2755 458.346 87.6583 458.372 88.0612 458.399 88.4709 458.433 88.894 458.433 89.7268 458.44 90.5126 458.44 90.9223 458.44 91.3118 458.44 91.7282 458.44 92.1312 458.446 92.9707 458.487 94.3273 457.949 95.684 457.036 96.6041ZM21.1825 19.5908C20.4773 20.3027 20.0744 21.2631 20.0811 22.2235 20.0878 23.0026 20.1281 23.3787 20.1684 23.7749 20.2154 24.1913 20.2624 24.6212 20.2624 25.4607 20.2691 26.2867 20.2624 26.6897 20.2624 27.1061 20.2557 27.5023 20.2557 27.9053 20.2557 28.7045 20.2624 29.5306 20.2423 29.947 20.2221 30.3567 20.202 30.7529 20.1885 31.1492 20.1885 31.9417 20.1953 32.7678 20.1751 33.1774 20.1617 33.5871 20.1482 33.9834 20.1281 34.3796 20.1348 35.1788 20.1415 35.978 20.155 36.3743 20.1751 36.7773 20.1953 37.1869 20.2154 37.5966 20.2154 38.416 20.2221 39.1883 20.2624 39.5644 20.3027 39.9674 20.3497 40.3838 20.39 40.8069 20.3967 41.6531 20.4035 42.4792 20.3833 42.9023 20.3632 43.3053 20.343 43.715 20.3229 44.0978 20.3296 44.8903 20.3363 45.6761 20.3632 46.0589 20.3967 46.4618 20.4303 46.8715 20.4639 47.2946 20.4639 48.1274 20.4706 48.9669 20.4303 49.3901 20.3967 49.8065 20.3632 50.2094 20.3296 50.5855 20.3363 51.3646 20.343 52.1839 20.3296 52.6003 20.3161 53.01 20.3027 53.4063 20.2893 53.8025 20.296 54.6017 20.3027 55.4009 20.3094 55.7972 20.3229 56.2002 20.3363 56.6098 20.3497 57.0195 20.3497 57.8389 20.3564 58.6247 20.3833 59.0008 20.4169 59.4037 20.4505 59.8134 20.484 60.2365 20.484 61.0693 20.4908 61.8887 20.484 62.2916 20.4706 62.7013 20.4639 63.1043 20.4572 63.5005 20.4572 64.2998 20.4639 65.1057 20.4706 65.5087 20.4773 65.9116 20.484 66.3146 20.4908 66.7175 20.4975 67.5302 20.5042 68.3495 20.484 68.7592 20.4706 69.1689 20.4572 69.5652 20.4437 69.9681 20.4437 70.7606 20.4505 71.5531 20.4706 71.9427 20.4975 72.3389 20.5243 72.7419 20.5445 73.165 20.5512 73.9911L20.5714 77.2282C20.5781 78.0408 20.5781 78.4438 20.5781 78.8468 20.5781 79.2497 20.5781 79.6527 20.5848 80.4586 20.5915 81.3183 20.5243 81.7548 20.4572 82.178 20.3967 82.5675 20.343 82.9369 20.343 83.6891 20.3497 84.4547 20.3967 84.8241 20.4505 85.2203 20.5109 85.6367 20.5646 86.0733 20.5714 86.9262 20.5781 87.7187 20.5915 88.1217 20.6117 88.5179 20.6318 88.9276 20.6452 89.3373 20.6519 90.1634 20.6587 91.023 20.5848 91.4663 20.5176 91.8894 20.4572 92.2789 20.3967 92.6416 20.4035 93.4005 20.4102 94.1729 20.84 94.952 21.7534 95.8586 22.5392 96.6377 23.3451 97.0138 24.2249 97.0071 25.0577 97.0003 25.4808 97.0272 25.8905 97.0541 26.2935 97.0809 26.6763 97.1078 27.4688 97.1011 28.2814 97.0944 28.6911 97.1011 29.1008 97.1078 29.5037 97.1145 60.4917 97.1212 61.2977 97.1145 62.0767 97.1078 62.4528 97.0742 62.8558 97.0406 63.2655 97.0003 63.6953 96.96 64.5348 96.96 65.3206 96.9533 104.079 96.9265 104.482 96.8929 104.892 96.8593 105.315 96.8257 106.154 96.819 106.98 96.8123 107.39 96.8324 107.8 96.8526 108.196 96.8727 108.592 96.8862 109.385 96.8862 110.197 96.8795 110.6 96.8795 111.003 96.8795 111.406 96.8795 155.504 96.8795 156.31 96.8727 157.116 96.866 157.519 96.866 157.929 96.8593 158.332 96.8526 158.741 96.8526 159.547 96.8459 160.387 96.8392 211.489 96.8727 211.899 96.9063 212.302 96.9399 212.678 96.9668 213.464 96.9668 214.27 96.96 214.673 96.9533 215.076 96.9533 215.479 96.9466 215.888 96.9399 216.701 96.9399L263.942 96.913C264.714 96.9063 265.09 96.866 265.493 96.8257 265.91 96.7787 266.333 96.7317 267.179 96.7317 268.019 96.725 268.442 96.7653 268.851 96.7989 269.254 96.8324 269.63 96.866 270.41 96.8593 271.202 96.8526 271.605 96.8392 272.001 96.8257 272.411 96.8123 272.821 96.7921 273.64 96.7921 274.466 96.7854 274.869 96.7854 275.285 96.7921 275.682 96.7921 276.085 96.7921 276.87 96.7921 277.683 96.7854 278.093 96.7921 278.502 96.7989 278.905 96.8056 304.138 96.8123 304.937 96.8056 305.77 96.7989 306.193 96.8324 306.602 96.8593 307.005 96.8862 307.382 96.913 308.167 96.913 308.96 96.9063 351.358 96.8996 351.755 96.8929 352.164 96.8862 352.574 96.8795 353.393 96.8727 354.152 96.866 354.515 96.8123 354.905 96.7451 355.328 96.678 355.764 96.6108 356.624 96.6041 357.484 96.5974 357.92 96.6645 358.343 96.725 358.733 96.7854 359.102 96.8392 359.861 96.8324 360.68 96.8257 401.185 96.8324 401.595 96.8459 401.998 96.8526 402.394 96.8593 403.193 96.8593 403.986 96.8526 404.389 96.8392 404.785 96.819 405.195 96.7989 449.366 96.7854 450.186 96.7787 450.971 96.772 451.374 96.772 451.764 96.7653 452.18 96.7586 452.583 96.7586 453.416 96.7519 454.43 96.7451 455.424 96.3422 456.089 95.6773 456.761 94.999 457.157 93.9983 457.15 92.9976 457.143 92.1581 457.143 91.7551 457.143 91.332 457.143 90.9424 457.143 90.5328 457.137 89.7537 457.13 88.9679 457.103 88.5851 457.076 88.1754 457.049 87.7657 457.016 87.3426 457.016 86.5098 457.009 85.7375 456.969 85.3614 456.928 84.9584 456.882 84.542 456.835 84.1122 456.835 83.2727 456.828 82.4466 456.848 82.0369 456.861 81.6272 456.875 81.231 456.895 80.8347 456.888 80.0355 456.882 79.2094 456.902 78.7863 456.922 78.3834 456.942 77.9737 456.962 77.5909 456.955 76.7984 456.949 76.0126 456.922 75.6365 456.895 75.2268 456.868 74.8171 456.835 74.394 456.828 73.5612 456.821 72.7217 456.855 72.2986 456.888 71.8889 456.922 71.486 456.949 71.1031 456.942 70.3241 456.935 69.5249 456.922 69.1286 456.915 68.7257 456.902 68.316 456.888 67.9063 456.888 67.0869 456.882 66.3011 456.855 65.925 456.821 65.5221 456.788 65.1124 456.747 64.6893 456.747 63.8498 456.74 63.0237 456.761 62.614 456.781 62.2043 456.801 61.8081 456.814 61.4118 456.814 60.6193 456.808 59.7731 456.855 59.3433 456.902 58.9269 456.942 58.5306 456.989 58.1545 456.982 57.3822 456.976 56.5897 456.955 56.2002 456.935 55.8039 456.908 55.3942 456.888 54.9778 456.882 54.1518 456.875 53.3593 456.855 52.963 456.835 52.5668 456.814 52.1571 456.794 51.7407 456.788 50.9213 456.781 50.1221 456.774 49.7191 456.767 49.3162 456.761 48.9065 456.747 48.5035 456.74 47.6909 456.734 46.8379 456.788 46.4081 456.841 45.9917 456.888 45.5955 456.935 45.2261 456.928 44.4604 456.922 43.668 456.908 43.2717 456.888 42.8755 456.868 42.4658 456.848 42.0561 456.848 41.23 456.841 40.4577 456.801 40.0816 456.754 39.6853 456.707 39.2689 456.66 38.8391 456.653 37.9929 456.646 37.1534 456.687 36.7302 456.72 36.3138 456.754 35.9109 456.788 35.5348 456.781 34.7557 456.774 33.9498 456.767 33.5535 456.761 33.1506 456.754 32.7409 456.74 32.3379 456.74 31.5253 456.734 30.7328 456.714 30.3365 456.693 29.947 456.667 29.5373 456.646 29.1209 456.64 28.2948 456.633 27.4889 456.626 27.0927 456.613 26.6897 456.599 26.28 456.586 25.8771 456.586 25.0577 456.579 24.2585 456.573 23.8555 456.566 23.4526 456.559 23.0429 456.546 22.6399 456.546 21.8273 456.539 20.8131 456.21 20.0005 455.538 19.3356 454.652 18.4558 453.832 18.0327 453.033 18.0394 452.234 18.0461 451.831 18.0528 451.428 18.0595 451.018 18.0663 450.609 18.0797 449.789 18.0797 449.037 18.0864 404.919 18.1536 404.53 18.2207 404.1 18.3013 403.663 18.3819 402.79 18.3886 401.931 18.3953 401.487 18.3215 401.064 18.261 400.675 18.2006 360.21 18.1401 359.451 18.1468 358.659 18.1536 358.263 18.1737 357.866 18.1939 357.45 18.2207 357.04 18.2409 356.214 18.2476 355.381 18.2543 354.958 18.2274 354.549 18.2006 354.146 18.1737 353.763 18.1536 352.977 18.1536 352.191 18.1603 351.815 18.1871 351.412 18.2207 351.003 18.2543 308.59 18.2879 307.758 18.2879 306.985 18.2946 306.609 18.3349 306.206 18.3752 305.79 18.4222 280.531 18.4692 279.691 18.4692 278.832 18.4759 278.395 18.4088 277.965 18.3416 277.576 18.2812 277.206 18.2274 276.454 18.2274 275.688 18.2342 275.319 18.2812 274.923 18.3349 274.506 18.3886 274.07 18.4491 273.224 18.4558 272.424 18.4625 272.021 18.4759 271.618 18.4894 271.209 18.5028 270.799 18.5162 269.986 18.5229 269.12 18.5297 268.677 18.4491 268.247 18.3752 267.857 18.308 267.495 18.2409 266.749 18.2476 265.95 18.2543 265.554 18.261 265.151 18.2745 264.741 18.2879 264.331 18.3013 263.512 18.3013 262.753 18.308 218.367 18.3618 217.977 18.4289 217.554 18.4961 217.117 18.57 216.258 18.57 215.405 18.5767 214.975 18.5162 214.552 18.4625 214.156 18.4088 213.786 18.3618 213.027 18.3685 212.235 18.3752 211.852 18.3953 211.449 18.4222 211.039 18.4491 159.943 18.4759 159.117 18.4759 158.325 18.4827 157.935 18.5028 157.539 18.5229 157.129 18.5498 156.713 18.57 155.887 18.5767 155.034 18.5834 110.916 18.5297 110.493 18.4827 110.097 18.4356 109.727 18.3953 108.955 18.3953 108.162 18.4021 107.766 18.4222 107.37 18.4424 106.954 18.4692 106.544 18.4894 105.718 18.4961 104.919 18.5028 104.522 18.5162 104.126 18.5297 103.716 18.5431 64.9243 18.5565 64.105 18.5632 63.2655 18.57 62.8356 18.5297 62.4193 18.4894 62.023 18.4491 61.6402 18.4155 60.8678 18.4222 60.0753 18.4289 29.1142 18.4491 28.7045 18.4759 28.2948 18.5028 27.8784 18.5297 27.0524 18.5364 26.2263 18.5431 25.8032 18.5162 25.3935 18.4894 24.9905 18.4625 24.6077 18.4424 23.8152 18.4491 22.8548 18.4491 21.8944 18.8655 21.1825 19.5908Z" fill="#45463D" fill-rule="nonzero" fill-opacity="1" transform="matrix(1 0 0 1.14455 0.603341 0)"/></g></g></g></g></svg>